# xmcd
#
# Track frame offsets:
#	150
#	27918
#	44562
#	62078
#	78473
#	99544
#	136011
#	148832
#	165798
#	193735
#	217569
#	238659
#
# Disc length: 3632 seconds
#
# Revision: 2
# Processed by: cddbd v1.4b42PL1 Copyright (c) Steve Scherf et al.
# Submitted via: EZCDDA 4.3.2
#
DISCID=9c0e2e0c
DTITLE=The Admiral's Lame Dog - Quiet Street Blues
DYEAR=1900
DGENRE=
TTITLE0=A-Blues
TTITLE1=Today's blues
TTITLE2=Black Queen
TTITLE3=Fraternity
TTITLE4=The Last Summer's Dawn
TTITLE5=I recognized you
TTITLE6=One more time
TTITLE7=HI-FI Woman Blues
TTITLE8=Alcogholfree Blues
TTITLE9=The young kings legacy
TTITLE10=Under the God's Nose
TTITLE11=It lanced my heart
EXTD=
EXTT0=
EXTT1=
EXTT2=
EXTT3=
EXTT4=
EXTT5=
EXTT6=
EXTT7=
EXTT8=
EXTT9=
EXTT10=
EXTT11=
PLAYORDER=
